# AST/ASF file generated using VICON BodyLanguage
# -----------------------------------------------
:version 1.10
:name VICON
:units
  mass 1.0
  length 0.45
  angle deg
:documentation
   .ast/.asf automatically generated from VICON data using
   VICON BodyBuilder and BodyLanguage model FoxedUp or BRILLIANT.MOD
:root
   order TX TY TZ RX RY RZ
   axis XYZ
   position 0 0 0  
   orientation 0 -0 0 
:bonedata
  begin
     id 1 
     name lhipjoint
     direction 0.432694 -0.693742 0.575759 
     length 2.19277 
     axis 0 -0 0  XYZ
  end
  begin
     id 2 
     name lfemur
     direction 0.34202 -0.939693 0  
     length 6.69022  
     axis 0 -0 20  XYZ
    dof rx ry rz
    limits (-160.0 20.0)
           (-70.0 70.0)
           (-60.0 70.0)
  end
  begin
     id 3 
     name ltibia
     direction 0.34202 -0.939693 0   
     length 6.50337   
     axis 0 -0 20   XYZ
    dof rx
    limits (-10.0 170.0)
  end
  begin
     id 4 
     name lfoot
     direction 0.158999 -0.435969 0.885805   
     length 2.70564   
     axis -90 -1.13533e-015 20   XYZ
    dof rx rz
    limits (-45.0 90.0)
           (-70.0 20.0)
  end
  begin
     id 5 
     name ltoes
     direction -0.00592919 0.00964381 0.999936   
     length 1.29929   
     axis -90 -1.13533e-015 20   XYZ
    dof rx
    limits (-90.0 20.0)
  end
  begin
     id 6 
     name rhipjoint
     direction -0.414359 -0.700339 0.581234   
     length 2.17212  
     axis 0 -0 0  XYZ 
  end
  begin
     id 7 
     name rfemur
     direction -0.34202 -0.939693 0   
     length 7.17659   
     axis 0 -0 -20   XYZ
    dof rx ry rz
    limits (-160.0 20.0)
           (-70.0 70.0)
           (-70.0 60.0)
  end
  begin
     id 8 
     name rtibia
     direction -0.34202 -0.939693 0   
     length 6.36669   
     axis 0 -0 -20   XYZ
    dof rx
    limits (-10.0 170.0)
 end
 begin
     id 9 
     name rfoot
     direction -0.137064 -0.37658 0.916188   
     length 2.22351  
     axis -90 1.13533e-015 -20   XYZ
    dof rx rz
    limits (-45.0 90.0)
           (-20.0 70.0)
  end
  begin
     id 10 
     name rtoes
     direction -0.000784077 -0.00289101 0.999996   
     length 1.09522   
     axis -90 1.13533e-015 -20   XYZ
    dof rx
    limits (-90.0 20.0)
  end
  begin
     id 11 
     name lowerback
     direction -0.0176242 0.984912 -0.172157   
     length 1.65301   
     axis 0 -0 0   XYZ
    dof rx ry rz
    limits (-20.0 45.0)
           (-30.0 30.0)
           (-30.0 30.0)
  end
  begin
     id 12 
     name upperback
     direction -0.00218128 0.998776 -0.0494072   
     length 1.67776   
     axis 0 -0 0   XYZ
    dof rx ry rz
    limits (-20.0 45.0)
           (-30.0 30.0)
           (-30.0 30.0)
  end
  begin
     id 13 
     name thorax
     direction 0.00544186 0.999658 0.0255711   
     length 1.72293   
     axis 0 -0 0   XYZ
    dof rx ry rz
    limits (-20.0 45.0)
           (-30.0 30.0)
           (-30.0 30.0)
  end
  begin
     id 14 
     name lowerneck
     direction -0.105325 0.983841 0.144785   
     length 2.14226   
     axis 0 -0 0   XYZ
    dof rx ry rz
    limits (-20.0 45.0)
           (-30.0 30.0)
           (-30.0 30.0)
  end
  begin
     id 15 
     name upperneck
     direction 0.0547957 0.988053 -0.144041   
     length 2.17508   
     axis 0 -0 0   XYZ
    dof rx ry rz
    limits (-20.0 45.0)
           (-30.0 30.0)
           (-30.0 30.0)
  end
  begin
     id 16
     name head
     direction 0.0247488 0.997534 -0.0656813  
     length 2.20048  
     axis 0 -0 0   XYZ
    dof rx ry rz
    limits (-20.0 45.0)
           (-30.0 30.0)
           (-30.0 30.0)
  end
  begin
     id 17 
     name lclavicle
     direction 0.820559 0.567247 -0.0701026  
     length 4.09615  
     axis 0 -0 0   XYZ
    dof ry rz
    limits (-20.0 10.0)
           (0.0 20.0)
  end
  begin
     id 18 
     name lhumerus
     direction 0.999977 -0.0067566 -9.96392e-005   
     length 4.59333   
     axis -180 -30 -90   XYZ
    dof rx ry rz
    limits (-60.0 90.0)
           (-90.0 90.0)
           (-90.0 90.0)
  end
  begin
     id 19
     name lradius
     direction 1 -4.48982e-011 -2.53425e-027   
     length 2.81151   
     axis -180 -30 -90   XYZ
    dof rx
    limits (-10.0 170.0)
  end
  begin
     id 20
     name lwrist
     direction 1 -4.48939e-011 -7.39254e-028   
     length 1.40576   
     axis 2.56395e-016 90 90   XYZ
    dof ry
    limits (-180.0 0.0)
 end
  begin
     id 21 
     name lhand
     direction 1 -4.48939e-011 -1.47851e-027   
     length 0.895651   
     axis 9.43423e-016 90 90   XYZ
    dof rx rz
    limits (-90.0 90.0)
           (-45.0 45.0)
  end
  begin
     id 22 
     name lfingers
     direction 1 -4.48978e-011 -2.95702e-027   
     length 0.722097   
     axis 1.88685e-015 90 90   XYZ
    dof rx
    limits (0.0 90.0)
  end
  begin
     id 23
     name lthumb
     direction 0.707107 -6.34931e-011 0.707107   
     length 1.03679   
     axis -90 45 -9.86935e-015   XYZ
    dof rx rz
    limits (-45.0 45.0)
           (-45.0 45.0)
  end
  begin
     id 24 
     name rclavicle
     direction -0.831414 0.553102 -0.0531864   
     length 4.24872  
     axis 0 -0 0   XYZ 
    dof ry rz
    limits (-10.0 20.0)
           (-20.0 0.0)
  end
  begin
     id 25 
     name rhumerus
     direction -0.999916 -0.000939607 0.0129331  
     length 4.74834   
     axis -180 30 90   XYZ
    dof rx ry rz
    limits (-90.0 60.0)
           (-90.0 90.0)
           (-90.0 90.0)
  end
  begin
     id 26 
     name rradius
     direction -1 -4.48956e-011 -1.31752e-027   
     length 2.79907   
     axis -180 30 90   XYZ
    dof rx
    limits (-10.0 170.0)
  end
  begin
     id 27 
     name rwrist
     direction -1 -4.4897e-011 -7.39254e-028   
     length 1.39954   
     axis 2.56395e-016 -90 -90   XYZ
    dof ry
    limits (-180.0 0.0)
  end
  begin
     id 28
     name rhand
     direction -0.999997 -0.00250697 0.000800838   
     length 0.953304   
     axis 9.43423e-016 -90 -90   XYZ
    dof rx rz
    limits (-90.0 90.0)
           (-45.0 45.0)
  end
  begin
     id 29
     name rfingers
     direction -1 -4.48954e-011 -2.95702e-027   
     length 0.763342   
     axis 1.88685e-015 -90 -90   XYZ
    dof rx
    limits (0.0 90.0)
  end
  begin
     id 30
     name rthumb
     direction -0.709701 -0.00217037 0.7045   
     length 1.10115   
     axis -90 -45 9.86935e-015   XYZ
    dof rx rz
    limits (-45.0 45.0)
           (-45.0 45.0)
  end
:hierarchy
  begin
    root lhipjoint rhipjoint lowerback
    lhipjoint lfemur
    lfemur ltibia
    ltibia lfoot
    lfoot ltoes
    rhipjoint rfemur
    rfemur rtibia
    rtibia rfoot
    rfoot rtoes
    lowerback upperback
    upperback thorax
    thorax lowerneck lclavicle rclavicle
    lowerneck upperneck
    upperneck head
    lclavicle lhumerus
    lhumerus lradius
    lradius lwrist
    lwrist lhand lthumb
    lhand lfingers
    rclavicle rhumerus
    rhumerus rradius
    rradius rwrist
    rwrist rhand rthumb
    rhand rfingers
  end

#!OML:ASF G:\ViconDB\ViconDB\414\test\team2\shane.ASF
:FULLY-SPECIFIED
:DEGREES
17
root 0.714276 16.2051 -24.6062 -4.86919 -15.1055 -5.9921
lowerback 12.1001 4.66974 6.18947
upperback 2.44854 6.94924 -0.0967551
thorax -3.42208 3.39191 -4.54616
lowerneck -16.7931 -2.24709 -2.16796
upperneck 17.8099 -4.10728 7.41021
head 8.53199 -1.31461 2.35503
rclavicle 4.62174e-014 -5.56597e-015
rhumerus 1.23641 21.4099 -96.4757
rradius 94.9517
rwrist 29.3805
rhand -41.1506 -19.3053
rfingers 7.12502
rthumb -14.0767 -48.8086
lclavicle 4.62174e-014 -5.56597e-015
lhumerus -63.3813 -11.3218 85.154
lradius 14.4202
lwrist -17.9487
lhand -34.9426 8.66555
lfingers 7.12502
lthumb -8.08936 38.4907
rfemur 36.2488 3.34619 20.094
rtibia -7.63333e-014
rfoot -14.6838 -1.83547
rtoes -24.0423
lfemur -24.6401 13.5438 -5.93467
ltibia 39.555
lfoot -29.446 -8.14059
ltoes -11.6419
18
root 0.749603 16.2256 -24.3965 -4.73275 -14.714 -5.80685
lowerback 11.7549 4.66494 5.87881
upperback 2.29387 6.8881 -0.140333
thorax -3.43466 3.3613 -4.38849
lowerneck -16.7564 -2.32895 -2.30875
upperneck 17.8233 -4.20978 7.52545
head 8.54109 -1.36107 2.4051
rclavicle 1.10325e-013 -3.18055e-014
rhumerus 1.0627 21.5232 -95.8546
rradius 95.518
rwrist 29.8448
rhand -41.1031 -19.3847
rfingers 7.12502
rthumb -14.031 -48.8911
lclavicle 1.10325e-013 -3.18055e-014
lhumerus -63.4501 -10.861 84.7548
lradius 14.5186
lwrist -17.2642
lhand -35.21 8.60451
lfingers 7.12502
lthumb -8.34743 38.4196
rfemur 36.5835 3.19521 19.5279
rtibia -6.99722e-014
rfoot -13.3542 -1.2951
rtoes -25.1683
lfemur -24.5885 13.3897 -6.53082
ltibia 40.0023
lfoot -28.5558 -8.65553
ltoes -11.0817
19
root 0.798921 16.2383 -24.1929 -4.61537 -14.219 -6.28934
lowerback 11.7485 4.53498 6.41886
upperback 2.11955 6.79505 -0.0255423
thorax -3.57603 3.30046 -4.56466
lowerneck -16.5966 -2.44719 -2.55663
upperneck 17.7542 -4.33655 7.67217
head 8.50459 -1.42769 2.48031
rclavicle 1.51722e-013 -1.43125e-014
rhumerus 0.698588 21.5584 -95.2893
rradius 95.8565
rwrist 30.1818
rhand -41.0654 -19.1573
rfingers 7.12502
rthumb -13.9947 -48.6662
lclavicle 1.51722e-013 -1.43125e-014
lhumerus -62.8544 -9.24355 82.5067
lradius 14.0915
lwrist -19.3772
lhand -34.6925 8.61455
lfingers 7.12502
lthumb -7.84797 38.4489
rfemur 37.0625 2.8702 19.6422
rtibia -1.24042e-013
rfoot -11.7756 -0.643601
rtoes -24.4512
lfemur -24.5524 13.1759 -6.33929
ltibia 40.4493
lfoot -27.6335 -8.48392
ltoes -11.3224
20
root 0.849855 16.2492 -23.9885 -4.57516 -13.7315 -6.19564
lowerback 11.7602 4.46014 6.35716
upperback 1.92021 6.69654 -0.0752333
thorax -3.80548 3.23804 -4.58504
lowerneck -16.5176 -2.60398 -2.77716
upperneck 17.8073 -4.5386 7.84483
head 8.52928 -1.52084 2.55146
rclavicle -1.87355e-014 -1.51076e-014
rhumerus 0.0299226 21.4927 -94.8488
rradius 95.9826
rwrist 31.0311
rhand -40.9821 -18.7009
rfingers 7.12502
rthumb -13.9144 -48.2154
lclavicle -1.87355e-014 -1.51076e-014
lhumerus -62.8337 -9.33764 82.8379
lradius 14.2895
lwrist -18.3119
lhand -34.9519 8.26718
lfingers 7.12502
lthumb -8.09833 38.092
rfemur 37.5019 2.6566 19.1199
rtibia 6.99722e-014
rfoot -10.1718 -0.0587455
rtoes -26.4136
lfemur -24.5326 13.3008 -6.85517
ltibia 40.9443
lfoot -26.8335 -8.52694
ltoes -11.2338
21
root 0.896095 16.2581 -23.7908 -4.75174 -13.2373 -5.90076
lowerback 11.8419 4.41149 6.04454
upperback 1.89448 6.59659 -0.148178
thorax -3.91626 3.18702 -4.48741
lowerneck -16.7041 -2.72304 -2.92575
upperneck 17.9059 -4.688 7.9252
head 8.61079 -1.5865 2.58495
rclavicle -9.31306e-014 1.35174e-014
rhumerus -0.716203 21.6017 -94.4011
rradius 96.117
rwrist 31.4631
rhand -40.9371 -18.4841
rfingers 7.12502
rthumb -13.871 -48.0015
lclavicle -9.31306e-014 1.35174e-014
lhumerus -62.2059 -8.68609 82.0845
lradius 14.1198
lwrist -19.2429
lhand -35.2468 8.86018
lfingers 7.12502
lthumb -8.383 38.6738
rfemur 38.0806 2.43813 18.4417
rtibia 8.26944e-014
rfoot -8.25764 0.464202
rtoes -27.1765
lfemur -24.258 13.7564 -7.54919
ltibia 41.4677
lfoot -26.3344 -8.55912
ltoes -10.8876
